<svg xmlns="http://www.w3.org/2000/svg" width="24" height="24" fill="none"><circle cx="-16" cy="8" r="2" stroke="#3667a6" stroke-width="2" transform="scale(-1 1)"/><circle cx="-8" cy="5" r="2" stroke="#3667a6" stroke-width="2" transform="scale(-1 1)"/><path d="M12 11a1 1 0 00-1-1H5a1 1 0 00-1 1v8.446c0 .344.178.664.491.808A8.557 8.557 0 008 21c1.61 0 2.86-.45 3.509-.746.313-.144.491-.463.491-.808zM20 14a1 1 0 00-1-1h-6a1 1 0 00-1 1v5.446c0 .344.178.664.491.808A8.557 8.557 0 0016 21c1.61 0 2.86-.45 3.509-.746.313-.144.491-.463.491-.808z" stroke="#3667a6" stroke-width="2"/></svg>