<svg width="192" height="21" fill="none" xmlns="http://www.w3.org/2000/svg"><path d="M12.691 5.938V16h-1.193V8.606c0-.098.002-.204.007-.316l.028-.344-3.455 6.292c-.107.21-.271.316-.491.316H7.39c-.22 0-.384-.106-.491-.316l-3.525-6.32c.028.248.042.477.042.688V16H2.222V5.938h1.004c.122 0 .215.011.281.035.066.023.129.089.19.196l3.475 6.194c.057.112.11.23.162.35.056.123.108.247.154.373.047-.126.096-.25.148-.372a3.61 3.61 0 01.168-.358l3.413-6.187c.056-.107.117-.173.182-.196a.942.942 0 01.288-.035h1.005zm5.928 6.86c-.576.019-1.067.066-1.475.14-.402.07-.732.164-.99.281-.253.117-.438.256-.555.415a.903.903 0 00-.168.533c0 .188.03.35.091.485.061.136.143.248.246.337.108.084.232.147.372.19.145.037.3.056.463.056.22 0 .422-.021.604-.064.183-.046.354-.112.513-.196.164-.084.318-.185.463-.302.15-.117.295-.25.436-.4v-1.475zM14.58 9.891c.394-.38.817-.662 1.271-.85.454-.187.957-.28 1.51-.28.398 0 .751.065 1.06.196.31.131.569.314.78.548.21.234.37.517.477.85.108.332.162.697.162 1.095V16h-.555a.572.572 0 01-.281-.056c-.066-.042-.117-.122-.154-.239l-.141-.674a7.58 7.58 0 01-.548.463 3.428 3.428 0 01-.561.338 3.027 3.027 0 01-.632.203 3.24 3.24 0 01-.738.077c-.276 0-.536-.037-.78-.112a1.883 1.883 0 01-.638-.351 1.7 1.7 0 01-.428-.583 2.115 2.115 0 01-.155-.843c0-.28.077-.55.232-.807.154-.262.405-.494.751-.695.347-.201.798-.365 1.355-.492.557-.13 1.24-.206 2.05-.224v-.555c0-.552-.119-.97-.357-1.25-.24-.286-.588-.428-1.047-.428-.309 0-.568.04-.779.119a2.767 2.767 0 00-.54.26c-.15.094-.282.18-.394.26a.563.563 0 01-.323.112.373.373 0 01-.218-.063.666.666 0 01-.154-.169l-.225-.4zm11.798.688c-.234-.314-.487-.531-.759-.653a2.138 2.138 0 00-.912-.19c-.66 0-1.168.237-1.524.71-.356.473-.534 1.147-.534 2.022 0 .463.04.861.12 1.194.08.327.196.599.35.814.155.21.345.365.57.464.224.098.48.147.765.147.412 0 .77-.094 1.074-.28.31-.188.592-.452.85-.794v-3.434zm1.25-4.922V16h-.745c-.178 0-.29-.087-.337-.26l-.112-.864c-.304.366-.65.66-1.04.885-.388.225-.837.337-1.347.337a2.6 2.6 0 01-1.11-.231 2.334 2.334 0 01-.85-.696c-.233-.304-.414-.683-.54-1.137a5.856 5.856 0 01-.19-1.566c0-.524.07-1.011.21-1.46a3.6 3.6 0 01.605-1.18c.262-.333.583-.592.962-.78a2.849 2.849 0 011.292-.287c.435 0 .807.074 1.116.224.314.145.592.349.836.611v-3.94h1.25zm6.735 6.01c0-.29-.042-.554-.127-.793a1.682 1.682 0 00-.358-.625 1.512 1.512 0 00-.569-.407 1.892 1.892 0 00-.765-.148c-.6 0-1.074.176-1.426.527-.346.347-.561.829-.645 1.447h3.89zm1.01 3.336c-.154.187-.339.351-.554.491a3.536 3.536 0 01-.695.338 4.102 4.102 0 01-.758.196c-.263.047-.522.07-.78.07-.491 0-.946-.082-1.362-.245a3.084 3.084 0 01-1.075-.73c-.3-.324-.533-.722-.702-1.194-.168-.473-.252-1.016-.252-1.63 0-.496.074-.96.224-1.39.155-.43.375-.803.66-1.116a2.963 2.963 0 011.047-.745 3.396 3.396 0 011.39-.273c.426 0 .82.072 1.18.217.365.14.678.347.94.618.267.267.476.6.625.997.15.394.225.843.225 1.348 0 .197-.021.328-.063.394-.042.065-.122.098-.239.098h-4.754c.014.45.075.84.183 1.173.112.332.267.61.463.835.197.22.431.386.703.499.271.107.575.161.912.161.314 0 .583-.035.808-.105a4.055 4.055 0 00.997-.47.55.55 0 01.288-.113c.103 0 .183.04.239.12l.35.456zm6.498-.716c.23.309.48.526.752.653.276.126.578.19.906.19.669 0 1.182-.237 1.537-.71.356-.473.534-1.177.534-2.114 0-.87-.16-1.51-.477-1.916-.314-.412-.764-.618-1.349-.618-.407 0-.763.093-1.067.28a3.16 3.16 0 00-.836.794v3.44zm0-4.375c.3-.346.637-.622 1.012-.828.379-.206.814-.31 1.306-.31.416 0 .79.08 1.123.24.337.158.623.39.857.694.234.3.412.665.533 1.096.127.43.19.915.19 1.453 0 .576-.07 1.1-.21 1.573a3.57 3.57 0 01-.611 1.215 2.777 2.777 0 01-.963.78 2.91 2.91 0 01-1.278.273c-.468 0-.863-.086-1.186-.26a2.642 2.642 0 01-.836-.75l-.063.645c-.037.178-.145.267-.323.267h-.808V5.657h1.257v4.255zm12.56-1.025l-3.967 9.212a.63.63 0 01-.161.225c-.061.056-.157.084-.288.084h-.927l1.3-2.822-2.936-6.7h1.081c.108 0 .192.029.253.085.066.052.11.11.133.176l1.904 4.48a5 5 0 01.189.618c.066-.22.136-.429.21-.625l1.847-4.473a.386.386 0 01.14-.183.383.383 0 01.233-.077h.99z" fill="#ABABAB"/><path fill-rule="evenodd" clip-rule="evenodd" d="M170.648 10.5c0 4.656-2.098 8.431-8.279 8.431-6.18 0-8.279-3.775-8.279-8.431 0-4.657 1.532-8.431 8.279-8.431s8.279 3.774 8.279 8.431zm-3.255.003c0 3.182-1.282 5.761-5.059 5.761s-5.059-2.58-5.059-5.761c0-3.182.936-5.762 5.059-5.762s5.059 2.58 5.059 5.762zm-104.456 8.27h3.164L71.57 5.37l2.714 6.2h-3.457l-1.064 2.685h5.33l2.08 4.508h3.323L73.292 2.182h-3.317l-7.038 16.59zm112.857-.01V2.183h3.12l9.214 11.854V2.182h2.935v16.581h-3.085l-9.226-12.07v12.07h-2.958zM140.38 2.183v16.58h9.738l1.044-2.693h-7.69V2.182h-3.092zm-38.224 0h3.68l5.136 12.701 5.119-12.702h3.625l-7.258 16.581h-3.331l-6.971-16.58zm-14.28 16.583h-3.08V2.182h3.08v16.584zm.926-7.738V9.015l6.277-6.833h3.764L91.537 9.92l8.28 8.843h-4.25l-6.766-7.735z" fill="#ABABAB"/><path fill-rule="evenodd" clip-rule="evenodd" d="M124.274 3.337c0-.7.568-1.268 1.268-1.268h8.486a1.268 1.268 0 010 2.536h-8.485a1.268 1.268 0 01-1.269-1.268zm-3.032 7.14c0-.7.568-1.268 1.268-1.268h11.518a1.268 1.268 0 010 2.536H122.51c-.7 0-1.268-.567-1.268-1.268zm-2.269 5.918a1.268 1.268 0 000 2.536h15.055a1.268 1.268 0 000-2.536h-15.055z" fill="#D1D1D1"/></svg>