<svg width="288" height="288" xmlns="http://www.w3.org/2000/svg" xmlns:xlink="http://www.w3.org/1999/xlink" xmlns:svgjs="http://svgjs.com/svgjs"><svg xmlns="http://www.w3.org/2000/svg" width="288" height="288" viewBox="0 0 24 24"><path d="M20.5 24h-12A2.503 2.503 0 0 1 6 21.5v-15C6 5.121 7.122 4 8.5 4h12C21.878 4 23 5.121 23 6.5v15c0 1.379-1.122 2.5-2.5 2.5zM8.5 5C7.673 5 7 5.673 7 6.5v15c0 .827.673 1.5 1.5 1.5h12c.827 0 1.5-.673 1.5-1.5v-15c0-.827-.673-1.5-1.5-1.5z" fill="#fff" class="color000 svgShape"/><path d="M4.5 21h-1A2.503 2.503 0 0 1 1 18.5v-16C1 1.121 2.122 0 3.5 0h12C16.878 0 18 1.121 18 2.5a.5.5 0 0 1-1 0c0-.827-.673-1.5-1.5-1.5h-12C2.673 1 2 1.673 2 2.5v16c0 .827.673 1.5 1.5 1.5h1a.5.5 0 0 1 0 1zm14-4h-8a.5.5 0 0 1 0-1h8a.5.5 0 0 1 0 1zm0 4h-8a.5.5 0 0 1 0-1h8a.5.5 0 0 1 0 1z" fill="#fff" class="color000 svgShape"/><path d="M18.5 13h-8a.5.5 0 0 1 0-1h8a.5.5 0 0 1 0 1zm0-4h-8a.5.5 0 0 1 0-1h8a.5.5 0 0 1 0 1z" fill="#fff" class="color000 svgShape"/></svg></svg>