<svg width="84" height="82" fill="none" xmlns="http://www.w3.org/2000/svg"><path fill-rule="evenodd" clip-rule="evenodd" d="M37.263 14.293c-2.463.18-5.044.51-6.52 1.081C23.431 9.071 13.096 2.512 6.017.179c-1.907-.628-3.904.45-4.3 2.419-.186.919-.298 1.872-.342 2.852-1.53 10.997 7.977 25.037 11.31 28.098-.176.51-.51 1.283-.928 2.25l-.406.94c-1.25 2.917-2.952 7.106-3.679 11.259-.375 1.562-1.063 5.957.768 10.487 1.902 4.706 10.247 11.653 19.23 14.163 7.184 2.007 23.272 4.916 37.19-3.993 12.71-8.136 12.91-15.847 12.153-19.671-.388-1.958-.708-3.352-.984-4.239l-.003-.01c-.97-3.47-2.375-6.717-3.334-8.936-.452-1.045-.806-1.863-.97-2.369 7.663-9.679 12.818-21.865 11.01-30.831-.397-1.969-2.394-3.047-4.3-2.419-7.08 2.333-17.415 8.892-24.727 15.195-1.29-.5-3.428-.815-5.592-1.006l.001-.013c-3.082-.55-7.846-.609-10.788-.068l.001.001-.064.005z" fill="#fff"/><path d="M30.743 15.374c2.624-1.015 8.74-1.27 11.481-1.27 2.742 0 8.858.255 11.481 1.27C61.018 9.071 71.353 2.512 78.432.179c1.906-.628 3.903.45 4.3 2.419 1.808 8.966-3.346 21.152-11.009 30.831.904 2.798 7.621 15.13 4.654 22.788-5.084 8.626-19.043 18.632-34.928 17.749-17.244-.138-28.293-9.123-33.377-17.75-2.968-7.657 3.75-19.989 4.654-22.787C5.063 23.75-.092 11.564 1.716 2.598 2.115.629 4.11-.45 6.018.178c7.08 2.334 17.414 8.893 24.726 15.196z" fill="url(#paint0_linear)"/><path d="M34.854 42.414c1.513-.159 4.676-1.154 5.227-3.864.69-3.389-.776-21.427-2.754-24.263 2.941-.54 7.706-.481 10.788.068-.842 7.129-2.42 22.198-1.979 24.332.553 2.667 3.773 4.782 4.754 5.042.981.26 6.071 2.452 7.697 5.824 1.625 3.373 1.825 6.577 5.03 6.377 3.203-.2 10.377-5.858 11.142-11.117.573-2.446 1.129-1.513 2.255 4.17.757 3.824.556 11.535-12.154 19.67-13.918 8.91-30.006 6-37.19 3.993-8.982-2.51-17.328-9.456-19.23-14.162-1.901-4.706-1.085-9.267-.725-10.656.366-1.413.726-.872.726-.872s12.774 19.146 16.067 5.946c.674-5.703 6.82-9.604 10.346-10.488z" fill="url(#paint1_linear)"/><path d="M35.669 48.105c0-1.015-.533-2.57 6.888-2.57 7.42 0 6.245 1.555 6.245 2.57 0 1.016-4.378 3.81-6.567 5.081-2.189-1.27-6.566-4.065-6.566-5.081zM35.669 58.268c3.94 0 5.997-2.118 6.545-3.812.547 1.694 2.626 3.812 6.566 3.812h.011c.345 0 .903 0 1.316-.29-.537.736-1.171 2.558-1.327 3.473-.744 2.354-1.611 4.277-6.9 4.277-4.457 0-5.49-1.25-6.101-3.025-.108-1.298-.678-3.821-1.902-4.917a3.417 3.417 0 001.792.482z" fill="#000"/><path d="M42.214 54.456c-.548 1.694-2.605 3.812-6.545 3.812-.264 0-.961 0-1.792-.482 1.224 1.096 1.794 3.619 1.902 4.917.611 1.775 1.644 3.025 6.102 3.025 5.288 0 6.155-1.923 6.9-4.277.155-.915.789-2.737 1.326-3.474-.413.29-.971.29-1.316.29m-6.577-3.81l.021-1.27m-.021 1.27c.547 1.693 2.626 3.81 6.566 3.81m-6.545-5.08c-2.189-1.271-6.566-4.066-6.566-5.082 0-1.015-.533-2.57 6.888-2.57 7.42 0 6.245 1.555 6.245 2.57 0 1.016-4.378 3.81-6.567 5.081zm6.545 5.08h.011m-.01 0h.01" stroke="#000" stroke-width="3" stroke-linecap="round" stroke-linejoin="round"/><path d="M39.83 57.92l.157-.084c.553-.234 2.184-.63 4.278-.35.467.116.967.413 1.158.547l.003.003c.057.07.108.139.19.258.096.141.222.34.37.603.297.527.68 1.313 1.09 2.423.725 1.965.916 3.646.534 5.04-.401 1.463-1.375 2.395-2.496 2.906-1.072.488-2.261.592-3.27.531-1.007-.06-1.992-.295-2.712-.633-.642-.302-1.272-.716-1.741-1.355-.48-.654-.693-1.408-.736-2.216-.079-1.492.42-3.477 1.242-6.118a1.5 1.5 0 01.673-.848c.515-.302.934-.53 1.26-.706z" fill="url(#paint2_linear)"/><path d="M35.669 48.105c0-1.015-.533-2.57 6.888-2.57 7.42 0 6.245 1.555 6.245 2.57 0 1.016-4.378 3.81-6.567 5.081-2.188-1.27-6.566-4.065-6.566-5.081z" fill="#000"/><path d="M42.214 54.456c-.547 1.694-2.605 3.812-6.545 3.812-1.623-.27-5.275-1.462-6.906-4.07m13.45.258l.022-1.27m-.021 1.27c.547 1.694 2.626 3.812 6.567 3.812 1.084-.01 3.92-.935 6.588-4.552m-13.134-.53c-2.188-1.27-6.566-4.065-6.566-5.081 0-1.015-.533-2.57 6.888-2.57 7.42 0 6.245 1.555 6.245 2.57 0 1.016-4.378 3.81-6.567 5.081z" stroke="#000" stroke-width="3" stroke-linecap="round" stroke-linejoin="round"/><path d="M72.278 32.686c-7.85-1.901-11.335-9.557-12.243-11.373 3.244-9.054 22.437-19.51 22.437-19.51s5.484 9.939-10.194 30.883zM12.683 33.565c7.85-1.902 11.335-9.557 12.243-11.373-3.244-9.054-23.02-20.196-23.02-20.196s-4.938 14.623 10.777 31.57z" fill="#FED4D5"/><path d="M60.035 21.313c3.244-9.054 22.437-19.51 22.437-19.51s.263.476.509 1.439c-3.528 1.263-18.221 13.25-20.659 22.09-1.21-1.762-1.939-3.321-2.287-4.019zM24.926 22.192C21.682 13.138 1.9 1.984 1.9 1.984s-.249.507-.382 1.564c3.182 1.2 17.737 14.1 21.12 22.664 1.21-1.764 1.94-3.322 2.288-4.02z" fill="#DEA1A2"/><circle cx="31.121" cy="34.304" r="7.674" transform="rotate(-8.183 31.12 34.304)" fill="#fff"/><circle cx="54.595" cy="34.304" r="7.674" transform="rotate(-8.183 54.595 34.304)" fill="#fff"/><circle cx="54.026" cy="35.956" r="6.009" fill="#934A00"/><circle cx="54.025" cy="35.956" r="4.689" fill="#000"/><circle cx="51.995" cy="34.243" r=".957" fill="#FBEBDE"/><circle cx="30.853" cy="36.038" r="5.927" fill="#934A00"/><circle cx="30.853" cy="36.038" r="4.747" fill="#000"/><circle cx="28.464" cy="33.969" r=".906" fill="#FBEBDE"/><path d="M42.346 45.054c-2.578 0-3.445.335-3.732.724 2.777.842 4.355.897 7.22 0-.18-.39-.91-.724-3.488-.724z" fill="#fff"/><defs><linearGradient id="paint0_linear" x1="42.224" y1="-1.863" x2="42.224" y2="74.02" gradientUnits="userSpaceOnUse"><stop stop-color="#FFB72C"/><stop offset="1" stop-color="#FF9E2C"/></linearGradient><linearGradient id="paint1_linear" x1="40.761" y1="14.839" x2="46.976" y2="74.875" gradientUnits="userSpaceOnUse"><stop stop-color="#F4F4F4"/><stop offset="1" stop-color="#E9E9E9"/></linearGradient><linearGradient id="paint2_linear" x1="42.224" y1="57.389" x2="42.224" y2="69.813" gradientUnits="userSpaceOnUse"><stop offset=".005" stop-color="#9B1B1B"/><stop offset=".328" stop-color="#E34E4E"/><stop offset="1" stop-color="#F77"/></linearGradient></defs></svg>