<svg xmlns="http://www.w3.org/2000/svg" width="83" height="82" fill="none"><defs/><path fill="#fff" fill-rule="evenodd" d="M36.665 14.293c-2.464.18-5.045.51-6.52 1.081C22.832 9.071 12.498 2.512 5.419.179c-1.907-.628-3.904.45-4.301 2.419C.933 3.517.82 4.47.777 5.45c-1.53 10.997 7.976 25.037 11.31 28.098-.177.51-.51 1.283-.929 2.25l-.405.94c-1.25 2.917-2.953 7.106-3.68 11.259-.374 1.562-1.062 5.957.769 10.487C9.743 63.19 18.089 70.137 27.07 72.647c7.184 2.007 23.272 4.916 37.19-3.993 12.71-8.136 12.911-15.847 12.154-19.671-.388-1.958-.708-3.352-.985-4.239l-.003-.01c-.97-3.47-2.374-6.717-3.334-8.936-.452-1.045-.805-1.863-.969-2.369 7.663-9.679 12.818-21.865 11.01-30.831C81.735.629 79.74-.45 77.832.179c-7.08 2.333-17.414 8.892-24.726 15.195-1.291-.5-3.428-.815-5.593-1.006l.002-.013c-3.082-.55-7.847-.609-10.788-.068v.001l-.063.005z" clip-rule="evenodd"/><path fill="url(#paint0_linear)" d="M30.145 15.374c2.623-1.015 8.74-1.27 11.481-1.27 2.742 0 8.858.255 11.481 1.27C60.419 9.071 70.754 2.512 77.833.179c1.907-.628 3.904.45 4.3 2.419 1.809 8.966-3.346 21.152-11.008 30.831.904 2.798 7.621 15.13 4.653 22.788-5.084 8.626-19.042 18.632-34.928 17.749-17.243-.138-28.292-9.123-33.377-17.75-2.967-7.657 3.75-19.989 4.654-22.787C4.465 23.75-.69 11.564 1.118 2.598 1.515.629 3.512-.45 5.418.178c7.08 2.334 17.415 8.893 24.727 15.196z"/><path fill="url(#paint1_linear)" d="M34.255 42.414c1.513-.159 4.676-1.154 5.227-3.864.69-3.388-.776-21.427-2.754-24.263 2.942-.54 7.706-.481 10.788.068-.842 7.129-2.42 22.198-1.978 24.332.552 2.667 3.772 4.782 4.753 5.042.981.26 6.071 2.452 7.697 5.824 1.626 3.373 1.826 6.577 5.03 6.377 3.204-.2 10.377-5.858 11.143-11.117.572-2.446 1.128-1.513 2.254 4.17.757 3.824.556 11.535-12.153 19.67-13.918 8.91-30.007 6-37.19 3.993-8.983-2.51-17.328-9.456-19.23-14.162-1.902-4.706-1.086-9.267-.726-10.656.366-1.413.726-.871.726-.871s12.774 19.145 16.068 5.945c.673-5.703 6.82-9.603 10.345-10.488z"/><path fill="#000" d="M35.07 48.104c0-1.014-.532-2.569 6.889-2.569 7.42 0 6.245 1.555 6.245 2.57 0 1.016-4.378 3.81-6.567 5.081-2.189-1.27-6.567-4.065-6.567-5.082z"/><path stroke="#000" stroke-linecap="round" stroke-linejoin="round" stroke-width="3" d="M29.5 60c5.5 0 7.672-1.906 8.5-2.193m3.615-3.35l.022-1.271m-.022 1.27c-.39 1.21-1.55 2.634-3.615 3.35m3.615-3.35c.392 1.213 1.57 2.643 3.652 3.357m-3.63-4.627c-2.189-1.27-6.567-4.065-6.567-5.082 0-1.014-.532-2.569 6.889-2.569 7.42 0 6.245 1.555 6.245 2.57 0 1.016-4.378 3.81-6.567 5.081zM53.5 60c-4 0-7.406-1.903-8.233-2.187M38 57.807s1.628 2.195 3.637 2.193c2.005-.002 3.63-2.187 3.63-2.187"/><path fill="#FED4D5" d="M71.68 32.686c-7.851-1.901-11.336-9.557-12.244-11.373 3.245-9.054 22.438-19.51 22.438-19.51s5.484 9.939-10.194 30.883zM12.084 33.565c7.85-1.902 11.335-9.557 12.244-11.373-3.245-9.054-23.02-20.196-23.02-20.196s-4.938 14.623 10.776 31.57z"/><path fill="#DEA1A2" d="M59.436 21.313c3.245-9.054 22.438-19.51 22.438-19.51s.262.476.508 1.439c-3.527 1.263-18.22 13.25-20.658 22.09-1.21-1.762-1.94-3.321-2.288-4.019zM24.328 22.192C21.082 13.138 1.3 1.984 1.3 1.984s-.248.507-.382 1.564c3.183 1.2 17.738 14.1 21.12 22.664 1.211-1.764 1.94-3.322 2.288-4.02z"/><circle cx="30.522" cy="34.304" r="7.674" fill="#fff" transform="rotate(-8.183 30.522 34.304)"/><circle cx="53.997" cy="34.304" r="7.674" fill="#fff" transform="rotate(-8.183 53.997 34.304)"/><circle cx="53.427" cy="35.956" r="6.009" fill="#934A00"/><circle cx="53.427" cy="35.956" r="4.689" fill="#000"/><circle cx="51.397" cy="34.243" r=".957" fill="#FBEBDE"/><circle cx="30.255" cy="36.038" r="5.927" fill="#934A00"/><circle cx="30.255" cy="36.038" r="4.747" fill="#000"/><circle cx="27.865" cy="33.969" r=".906" fill="#FBEBDE"/><path fill="url(#paint2_linear)" d="M73.238 38.5c-.959-2.345-1.827-4.185-2.114-5.07L64.5 30l-15-7.217-2.028 6.015c7.121 4.386 17.77 9.702 25.766 9.702z"/><path fill="url(#paint3_linear)" d="M10.5 37.332c.374-.884.719-1.67 1-2.327l24-12.746 2.5 6.539c-7.738 4.292-20.782 7.37-27.5 8.534z"/><path fill="#fff" d="M41.748 45.054c-2.578 0-3.446.335-3.732.724 2.776.842 4.355.897 7.22 0-.181-.39-.91-.724-3.488-.724z"/><path fill="#7CD1FF" d="M27.64 45c0-1.6-2-4-3-5 0 0-1 3.5-.5 5s3.5 1.6 3.5 0z"/><path fill="#fff" d="M26 44.623c0-.52-.55-1.298-.824-1.623 0 0-.275 1.136-.137 1.623.137.486.961.519.961 0z"/><defs><linearGradient id="paint0_linear" x1="41.626" x2="41.626" y1="-1.863" y2="74.02" gradientUnits="userSpaceOnUse"><stop stop-color="#FFB72C"/><stop offset="1" stop-color="#FF9E2C"/></linearGradient><linearGradient id="paint1_linear" x1="40.163" x2="46.377" y1="14.839" y2="74.875" gradientUnits="userSpaceOnUse"><stop stop-color="#F4F4F4"/><stop offset="1" stop-color="#E9E9E9"/></linearGradient><linearGradient id="paint2_linear" x1="41.626" x2="41.626" y1="-1.863" y2="74.02" gradientUnits="userSpaceOnUse"><stop stop-color="#FFB72C"/><stop offset="1" stop-color="#FF9E2C"/></linearGradient><linearGradient id="paint3_linear" x1="41.626" x2="41.626" y1="-1.863" y2="74.02" gradientUnits="userSpaceOnUse"><stop stop-color="#FFB72C"/><stop offset="1" stop-color="#FF9E2C"/></linearGradient></defs></svg>