<svg xmlns="http://www.w3.org/2000/svg" width="84" height="86" fill="none"><defs/><path fill="#fff" fill-rule="evenodd" d="M37.467 18.293c-2.463.18-5.044.51-6.52 1.081C23.635 13.071 13.3 6.512 6.221 4.179c-1.907-.629-3.903.45-4.3 2.419-.186.919-.298 1.872-.342 2.852C.05 20.447 9.556 34.487 12.89 37.548c-.176.51-.51 1.283-.928 2.25l-.406.94c-1.25 2.917-2.952 7.106-3.679 11.259-.375 1.562-1.062 5.957.768 10.487 1.902 4.706 10.247 11.653 19.23 14.163 7.184 2.007 23.272 4.916 37.19-3.993 12.71-8.136 12.91-15.847 12.153-19.671-.388-1.958-.708-3.352-.984-4.239l-.003-.01c-.97-3.47-2.374-6.717-3.334-8.936-.452-1.045-.806-1.863-.969-2.369 7.662-9.679 12.817-21.865 11.009-30.831-.397-1.968-2.394-3.047-4.3-2.419-7.08 2.333-17.414 8.892-24.727 15.195-1.29-.5-3.428-.815-5.592-1.006l.002-.013c-3.083-.55-7.847-.608-10.789-.068l.001.001-.064.005z" clip-rule="evenodd"/><path fill="url(#paint0_linear)" d="M30.948 19.374c2.623-1.015 8.74-1.27 11.48-1.27 2.742 0 8.858.255 11.482 1.27 7.312-6.303 17.647-12.862 24.726-15.195 1.907-.629 3.903.45 4.3 2.419 1.808 8.966-3.346 21.152-11.009 30.831.904 2.798 7.622 15.13 4.654 22.788-5.084 8.626-19.043 18.632-34.928 17.749-17.243-.138-28.292-9.123-33.377-17.75-2.968-7.657 3.75-19.989 4.654-22.787C5.267 27.75.113 15.564 1.92 6.598c.398-1.969 2.395-3.047 4.301-2.419 7.08 2.333 17.414 8.892 24.727 15.195z"/><path fill="url(#paint1_linear)" d="M35.058 46.414c1.513-.159 4.676-1.154 5.227-3.864.69-3.389-.776-21.427-2.754-24.263 2.941-.54 7.706-.481 10.788.068-.842 7.129-2.42 22.198-1.978 24.332.552 2.667 3.772 4.782 4.753 5.042.981.26 6.071 2.452 7.697 5.824 1.625 3.373 1.825 6.577 5.03 6.377 3.203-.2 10.377-5.858 11.142-11.117.573-2.446 1.13-1.513 2.255 4.17.757 3.824.556 11.535-12.154 19.67-13.918 8.91-30.006 6-37.19 3.993-8.982-2.51-17.327-9.456-19.23-14.162-1.901-4.706-1.085-9.267-.725-10.656.366-1.413.726-.872.726-.872s12.774 19.146 16.067 5.946c.674-5.703 6.82-9.604 10.346-10.488z"/><path fill="#000" d="M35.873 52.105c0-1.015-.533-2.57 6.888-2.57s6.245 1.555 6.245 2.57c0 1.016-4.378 3.81-6.566 5.081-2.19-1.27-6.567-4.065-6.567-5.081zM35.873 62.268c3.94 0 5.998-2.118 6.545-3.812.547 1.694 2.626 3.812 6.566 3.812h.011c.345 0 .904 0 1.316-.29-.537.736-1.171 2.558-1.327 3.473-.743 2.354-1.611 4.277-6.9 4.277-4.457 0-5.49-1.25-6.1-3.025-.108-1.298-.678-3.821-1.903-4.917a3.417 3.417 0 001.792.482z"/><path stroke="#000" stroke-linecap="round" stroke-linejoin="round" stroke-width="3" d="M42.418 58.456c-.547 1.694-2.605 3.812-6.545 3.812-.264 0-.96 0-1.792-.482 1.224 1.096 1.794 3.619 1.902 4.917.611 1.775 1.644 3.025 6.102 3.025 5.288 0 6.156-1.923 6.9-4.277.155-.915.79-2.737 1.326-3.474-.412.29-.971.29-1.316.29m-6.577-3.81l.022-1.27m-.022 1.27c.547 1.693 2.626 3.81 6.566 3.81m-6.544-5.08c-2.19-1.271-6.567-4.066-6.567-5.082 0-1.015-.533-2.57 6.888-2.57s6.245 1.555 6.245 2.57c0 1.016-4.378 3.81-6.566 5.081zm6.544 5.08h.011m-.01 0h.01"/><path fill="url(#paint2_linear)" d="M40.034 61.92l.157-.084c.554-.234 2.184-.63 4.278-.35.467.116.967.413 1.159.547l.002.003c.057.07.108.139.19.258.096.141.222.34.37.603.297.527.681 1.313 1.09 2.423.725 1.965.916 3.646.534 5.04-.401 1.463-1.375 2.395-2.496 2.906-1.072.488-2.261.592-3.27.531-1.007-.06-1.992-.295-2.711-.633-.643-.302-1.273-.716-1.742-1.355-.48-.654-.693-1.408-.736-2.216-.079-1.492.42-3.477 1.242-6.118a1.5 1.5 0 01.673-.848c.515-.302.934-.53 1.26-.706z"/><path fill="#000" d="M35.873 52.105c0-1.015-.533-2.57 6.888-2.57s6.245 1.555 6.245 2.57c0 1.016-4.378 3.81-6.566 5.081-2.19-1.27-6.567-4.065-6.567-5.081z"/><path stroke="#000" stroke-linecap="round" stroke-linejoin="round" stroke-width="3" d="M42.418 58.456c-.547 1.694-2.605 3.812-6.545 3.812-1.623-.27-5.275-1.462-6.906-4.07m13.45.258l.023-1.27m-.022 1.27c.547 1.694 2.627 3.812 6.567 3.812 1.084-.01 3.92-.935 6.588-4.552m-13.133-.53c-2.19-1.27-6.567-4.065-6.567-5.081 0-1.015-.533-2.57 6.888-2.57s6.245 1.555 6.245 2.57c0 1.016-4.378 3.81-6.566 5.081z"/><path fill="#FED4D5" d="M72.482 36.686c-7.85-1.901-11.335-9.557-12.243-11.373 3.244-9.054 22.437-19.51 22.437-19.51s5.484 9.939-10.194 30.883zM12.887 37.565c7.85-1.902 11.335-9.557 12.243-11.373C21.886 17.138 2.11 5.996 2.11 5.996s-4.938 14.623 10.777 31.57z"/><path fill="#DEA1A2" d="M60.239 25.313c3.244-9.054 22.437-19.51 22.437-19.51s.263.476.509 1.439c-3.528 1.263-18.221 13.25-20.659 22.09-1.21-1.762-1.939-3.321-2.287-4.019zM25.13 26.192C21.886 17.138 2.104 5.984 2.104 5.984s-.249.507-.382 1.564c3.182 1.2 17.737 14.1 21.12 22.664 1.21-1.764 1.94-3.322 2.288-4.02z"/><circle cx="31.325" cy="38.304" r="7.674" fill="#fff" transform="rotate(-8.183 31.325 38.304)"/><circle cx="54.799" cy="38.304" r="7.674" fill="#fff" transform="rotate(-8.183 54.8 38.304)"/><circle cx="54.23" cy="39.956" r="6.009" fill="#934A00"/><circle cx="54.23" cy="39.956" r="4.689" fill="#000"/><circle cx="52.199" cy="38.243" r=".957" fill="#FBEBDE"/><circle cx="31.057" cy="40.038" r="5.927" fill="#934A00"/><circle cx="31.057" cy="40.038" r="4.747" fill="#000"/><circle cx="28.668" cy="37.969" r=".906" fill="#FBEBDE"/><path fill="url(#paint3_linear)" d="M22.803 36c.374-.884.718-1.67 1-2.327 2.175-5.525 5.598-5.928 12.5-5.673l2.5 7c-6 2.5-11.5 1-16 1z"/><path fill="#fff" d="M42.55 49.054c-2.578 0-3.445.335-3.731.724 2.776.842 4.354.897 7.22 0-.181-.39-.91-.724-3.489-.724z"/><path fill="#FF782C" d="M57.601 19c-9.003 2.068-23.614 1.286-29.786 0 2.423 3.059 6.812 4.783 7.977 4.783h13.463c1.907 0 9.028-2.981 8.346-4.783zM27.814 15.33c8.717.943 27.059.842 29.672 0-2.052-3.397 1.622-12.834-9.85-13.33l-9.248.2c-10.359 0-8.373 9.916-10.573 13.13z"/><path fill="#AD5524" d="M57.803 19.5c-8.951 2-23.864 1.512-30 .267-1.31.142-.68-4.765 0-4.689 8.774.956 26.87.776 29.5-.078 1 0 1.305 4.32.5 4.5z"/><path fill="url(#paint4_linear)" d="M39.162 2.624c-.922 4-3.16 8.325-5.034 10.376h18.599c-1.922-2.102-4.224-6.593-5.101-10.673-.13-.608-.23-.963-.291-1.33C47.244.45 46.815 0 46.262 0h-5.67c-.552 0-.984.45-1.066.997-.07.47-.195.896-.364 1.627z"/><defs><linearGradient id="paint0_linear" x1="42.429" x2="42.428" y1="2.137" y2="78.02" gradientUnits="userSpaceOnUse"><stop stop-color="#FFB72C"/><stop offset="1" stop-color="#FF9E2C"/></linearGradient><linearGradient id="paint1_linear" x1="40.966" x2="47.18" y1="18.839" y2="78.875" gradientUnits="userSpaceOnUse"><stop stop-color="#F4F4F4"/><stop offset="1" stop-color="#E9E9E9"/></linearGradient><linearGradient id="paint2_linear" x1="42.428" x2="42.428" y1="61.389" y2="73.813" gradientUnits="userSpaceOnUse"><stop offset=".005" stop-color="#9B1B1B"/><stop offset=".328" stop-color="#E34E4E"/><stop offset="1" stop-color="#F77"/></linearGradient><linearGradient id="paint3_linear" x1="42.429" x2="42.428" y1="3.878" y2="79.761" gradientUnits="userSpaceOnUse"><stop stop-color="#FFB72C"/><stop offset="1" stop-color="#FF9E2C"/></linearGradient><linearGradient id="paint4_linear" x1="44.227" x2="44.227" y1="0" y2="13" gradientUnits="userSpaceOnUse"><stop offset=".281" stop-color="#C95513"/><stop offset="1" stop-color="#FF782C" stop-opacity="0"/></linearGradient></defs></svg>